<svg xmlns="http://www.w3.org/2000/svg" width="50" height="50" viewBox="0 0 50 50"><defs><style>.a{fill:#47defe;}</style></defs><title>Phone</title><path class="a" d="M9.617,18.262c.014-.218.026-.434.043-.655a10.573,10.573,0,0,1,.839-3.455A9.94,9.94,0,0,1,12,11.721a10.211,10.211,0,0,1,1.394-1.364c.434-.356.858-.728,1.285-1.094a3.457,3.457,0,0,1,.95-.608,1.987,1.987,0,0,1,1.8.132,4.808,4.808,0,0,1,1.328,1.19,20.409,20.409,0,0,1,1.408,2.056,17.282,17.282,0,0,1,1.115,1.911A5.72,5.72,0,0,1,21.84,15.8a2.91,2.91,0,0,1-.763,2.388c-.353.379-.764.7-1.143,1.06a11.438,11.438,0,0,1-1.2.923,2.53,2.53,0,0,0-1.026,1.411,3.091,3.091,0,0,0,.02,1.511A7.32,7.32,0,0,0,18.514,25a20.1,20.1,0,0,0,2.135,3.005,29.475,29.475,0,0,0,2.373,2.561,12.211,12.211,0,0,0,2.3,1.782,4.477,4.477,0,0,0,1.62.6,2.378,2.378,0,0,0,1.97-.608,3.114,3.114,0,0,0,.32-.309,12.12,12.12,0,0,1,1.456-1.364,7.231,7.231,0,0,1,.9-.686,2.978,2.978,0,0,1,2.544-.251A6.148,6.148,0,0,1,36.1,30.8c.712.565,1.4,1.16,2.1,1.748a10.162,10.162,0,0,1,1.365,1.363,4.018,4.018,0,0,1,.7,1.191,1.962,1.962,0,0,1-.376,2.016,8.352,8.352,0,0,1-.792.782c-.467.428-.933.857-1.415,1.267a9.686,9.686,0,0,1-3.361,1.846,10.483,10.483,0,0,1-3.609.476,13.22,13.22,0,0,1-5.037-1.27,21.8,21.8,0,0,1-4.689-3.006,33.731,33.731,0,0,1-2.8-2.584,44.267,44.267,0,0,1-4.365-5.2,27.038,27.038,0,0,1-2.793-4.841A16.44,16.44,0,0,1,9.774,20.4c-.073-.5-.094-1.007-.14-1.51-.006-.053-.012-.105-.017-.158Z"/></svg>
