<svg xmlns="http://www.w3.org/2000/svg" width="50" height="50" viewBox="0 0 50 50"><defs><style>.a{fill:#47defe;}</style></defs><title>Artboard 1</title><path class="a" d="M7.285,17.241c.016-.252.03-.5.049-.755A12.2,12.2,0,0,1,8.3,12.508a11.441,11.441,0,0,1,1.725-2.8,11.74,11.74,0,0,1,1.605-1.571c.5-.41.988-.838,1.48-1.26a3.98,3.98,0,0,1,1.094-.7,2.29,2.29,0,0,1,2.067.152A5.547,5.547,0,0,1,17.8,7.7a23.145,23.145,0,0,1,1.621,2.368,19.764,19.764,0,0,1,1.284,2.2,6.594,6.594,0,0,1,.656,2.135,3.354,3.354,0,0,1-.879,2.75c-.406.437-.88.811-1.316,1.221a13.441,13.441,0,0,1-1.384,1.063A2.908,2.908,0,0,0,16.6,21.061a3.562,3.562,0,0,0,.023,1.741,8.448,8.448,0,0,0,.907,2.2,23.133,23.133,0,0,0,2.459,3.461,34.029,34.029,0,0,0,2.733,2.949,14.04,14.04,0,0,0,2.653,2.052,5.148,5.148,0,0,0,1.865.687,2.737,2.737,0,0,0,2.269-.7,3.551,3.551,0,0,0,.369-.356,13.9,13.9,0,0,1,1.676-1.57,8.236,8.236,0,0,1,1.038-.79,3.428,3.428,0,0,1,2.929-.289,7.083,7.083,0,0,1,2.26,1.235c.82.651,1.612,1.336,2.412,2.013a11.719,11.719,0,0,1,1.572,1.57,4.619,4.619,0,0,1,.807,1.372,2.262,2.262,0,0,1-.433,2.321,9.8,9.8,0,0,1-.913.9c-.537.493-1.074.988-1.629,1.46a11.146,11.146,0,0,1-3.871,2.125,12.038,12.038,0,0,1-4.156.548,15.226,15.226,0,0,1-5.8-1.462,25.094,25.094,0,0,1-5.4-3.462,38.633,38.633,0,0,1-3.226-2.975A50.865,50.865,0,0,1,12.117,30.1,31.173,31.173,0,0,1,8.9,24.525,18.944,18.944,0,0,1,7.466,19.7c-.084-.575-.109-1.159-.162-1.739-.006-.06-.013-.12-.019-.181Z"/></svg>